<svg width="22266" height="7153" viewBox="0 0 22266 7153" fill="none" xmlns="http://www.w3.org/2000/svg">
<path d="M2891.72 2475.42C3159.94 2475.42 3368.9 2556.49 3518.61 2718.65C3674.55 2874.57 3752.52 3077.26 3752.52 3326.74C3752.52 3819.44 3552.92 4065.79 3153.7 4065.79C2991.52 4065.79 2863.65 4025.26 2770.08 3944.18C2682.75 3856.86 2629.73 3763.31 2611.02 3663.52C2592.3 3563.73 2554.88 3473.3 2498.74 3392.22C2442.6 3304.91 2358.39 3261.25 2246.11 3261.25C2077.69 3261.25 1952.93 3361.04 1871.84 3560.62C1790.75 3760.19 1750.21 4003.43 1750.21 4290.32V6161.35C1750.21 6273.61 1787.63 6373.4 1862.49 6460.72C1943.58 6541.8 2021.55 6613.52 2096.4 6675.89C2177.49 6738.25 2218.04 6800.62 2218.04 6862.99V6900.41C2218.04 7006.44 2149.42 7059.45 2012.19 7059.45H281.218C137.75 7059.45 66.0159 7006.44 66.0159 6900.41V6862.99C66.0159 6800.62 125.274 6703.95 243.792 6572.98C368.547 6442.01 430.924 6304.8 430.924 6161.35V3972.24C430.924 3822.56 359.19 3688.47 215.722 3569.97C72.2536 3451.47 0.519531 3361.04 0.519531 3298.67V3261.25C0.519531 3173.93 66.0159 3099.09 197.009 3036.73L1319.8 2512.84C1519.41 2419.28 1619.21 2481.65 1619.21 2699.94V3401.58C1831.3 2784.14 2255.47 2475.42 2891.72 2475.42Z" fill="#FD6E5E"/>
<path d="M5639.86 1680.23C5477.68 1829.91 5259.35 1904.75 4984.89 1904.75C4710.43 1904.75 4485.87 1829.91 4311.22 1680.23C4142.8 1524.31 4058.59 1324.73 4058.59 1081.49C4058.59 844.497 4142.8 651.157 4311.22 501.474C4485.87 345.555 4710.43 267.595 4984.89 267.595C5259.35 267.595 5477.68 345.555 5639.86 501.474C5808.28 651.157 5892.49 844.497 5892.49 1081.49C5892.49 1324.73 5808.28 1524.31 5639.86 1680.23ZM4133.44 7059.45C3996.21 7059.45 3927.6 7006.44 3927.6 6900.41V6862.99C3927.6 6800.62 3986.85 6703.95 4105.37 6572.98C4223.89 6442.01 4283.15 6301.68 4283.15 6152V4037.73C4283.15 3881.81 4223.89 3735.24 4105.37 3598.04C3986.85 3460.83 3927.6 3367.27 3927.6 3317.38V3289.31C3927.6 3226.95 3993.09 3161.46 4124.08 3092.86L5293.66 2512.84C5412.18 2462.94 5505.75 2459.82 5574.36 2503.48C5642.98 2540.9 5677.28 2606.39 5677.28 2699.94V6152C5677.28 6301.68 5742.78 6442.01 5873.77 6572.98C6004.77 6703.95 6070.26 6800.62 6070.26 6862.99V6900.41C6070.26 7006.44 5998.53 7059.45 5855.06 7059.45H4133.44Z" fill="#FD6E5E"/>
<path d="M8297.94 7153C7861.3 7153 7515.1 7015.79 7259.36 6741.37C7009.85 6460.72 6885.09 6058.45 6885.09 5534.56V3111.57H6445.33C6320.58 3111.57 6258.2 3049.2 6258.2 2924.46V2765.43C6258.2 2634.45 6320.58 2568.97 6445.33 2568.97H6679.25C6934.99 2568.97 7150.2 2484.77 7324.85 2316.38C7505.75 2147.98 7621.15 1923.46 7671.05 1642.8C7702.24 1493.12 7773.97 1418.28 7886.25 1418.28H8073.38C8210.61 1418.28 8279.23 1493.12 8279.23 1642.8L8288.58 2568.97H9364.6C9414.5 2568.97 9458.16 2587.68 9495.59 2625.1C9533.02 2662.52 9551.73 2709.29 9551.73 2765.43V2924.46C9551.73 2980.59 9533.02 3027.37 9495.59 3064.79C9458.16 3095.97 9414.5 3111.57 9364.6 3111.57H8288.58V5553.27C8288.58 5734.13 8332.25 5880.7 8419.58 5992.96C8513.14 6098.98 8628.54 6152 8765.77 6152C9090.14 6152 9302.22 6011.67 9402.02 5731.01C9458.16 5649.94 9526.78 5618.75 9607.87 5637.46C9695.2 5649.94 9738.86 5699.83 9738.86 5787.15C9738.86 6148.88 9607.87 6466.95 9345.88 6741.37C9090.14 7015.79 8740.82 7153 8297.94 7153Z" fill="#FD6E5E"/>
<path d="M14517.2 6105.22C14517.2 6273.61 14539.1 6401.47 14582.7 6488.78C14632.6 6569.86 14685.7 6616.64 14741.8 6629.11C14797.9 6635.35 14847.8 6654.06 14891.5 6685.24C14941.4 6716.43 14966.4 6769.44 14966.4 6844.28C14966.4 7025.15 14688.8 7115.58 14133.6 7115.58C13859.2 7115.58 13653.3 7071.92 13516.1 6984.61C13385.1 6891.06 13313.4 6732.02 13300.9 6507.49C13038.9 6937.83 12586.7 7153 11944.2 7153C11438.9 7153 11021 6984.61 10690.4 6647.82C10366 6304.8 10203.8 5824.57 10203.8 5207.12V3626.1C10203.8 3470.18 10141.5 3326.74 10016.7 3195.76C9898.19 3058.55 9838.93 2965 9838.93 2915.11V2887.04C9838.93 2774.78 9904.43 2709.29 10035.4 2690.58L11214.4 2512.84C11470.1 2481.65 11598 2537.78 11598 2681.23L11569.9 5347.45C11569.9 6195.65 11828.8 6619.76 12346.5 6619.76C12577.3 6619.76 12767.6 6519.97 12917.3 6320.39C13073.2 6114.58 13151.2 5849.51 13151.2 5525.2V3626.1C13151.2 3470.18 13088.8 3326.74 12964 3195.76C12839.3 3058.55 12776.9 2965 12776.9 2915.11V2887.04C12776.9 2774.78 12839.3 2709.29 12964 2690.58L14161.7 2512.84C14398.7 2487.89 14517.2 2544.02 14517.2 2681.23V6105.22Z" fill="#FD6E5E"/>
<path d="M19513.3 6123.93C19532 6267.38 19566.3 6382.76 19616.2 6470.07C19672.4 6557.39 19728.5 6613.52 19784.7 6638.47C19840.8 6657.18 19890.7 6682.12 19934.4 6713.31C19978 6744.49 19999.9 6788.15 19999.9 6844.28C19999.9 7025.15 19700.4 7115.58 19101.6 7115.58C18827.2 7115.58 18624.4 7081.28 18493.4 7012.67C18368.7 6937.83 18293.8 6803.74 18268.9 6610.4C18025.6 6972.13 17610.8 7153 17024.5 7153C16500.5 7153 16076.3 7031.38 15752 6788.15C15427.6 6544.91 15265.4 6195.65 15265.4 5740.37C15259.2 5291.32 15418.2 4942.06 15742.6 4692.59C16067 4443.12 16472.4 4318.38 16959 4318.38C17370.6 4318.38 17710.6 4411.94 17978.8 4599.04L17969.5 4486.78C17907.1 3894.28 17819.8 3476.42 17707.5 3233.18C17595.2 2989.95 17405 2868.33 17136.7 2868.33C16968.3 2868.33 16831.1 2930.7 16725 3055.44C16619 3180.17 16544.1 3317.38 16500.5 3467.06C16456.8 3616.75 16385.1 3753.96 16285.3 3878.69C16185.5 4003.43 16057.6 4065.79 15901.7 4065.79C15733.2 4065.79 15596 4019.02 15490 3925.47C15390.2 3825.68 15340.3 3697.82 15340.3 3541.9C15340.3 3217.59 15511.8 2958.77 15854.9 2765.43C16204.2 2572.09 16631.5 2475.42 17136.7 2475.42C17741.8 2475.42 18237.7 2646.93 18624.4 2989.95C19011.2 3332.97 19238.9 3800.73 19307.5 4393.22L19513.3 6123.93ZM17436.1 6741.37C17642 6741.37 17807.3 6657.18 17932 6488.78C18056.8 6314.15 18112.9 6117.69 18100.5 5899.41L18072.4 5571.98C18047.4 5303.79 17966.4 5097.98 17829.1 4954.54C17698.1 4811.09 17532.8 4739.37 17333.2 4739.37C17133.6 4739.37 16968.3 4811.09 16837.3 4954.54C16712.6 5097.98 16650.2 5288.2 16650.2 5525.2C16650.2 5861.99 16721.9 6148.88 16865.4 6385.88C17015.1 6622.87 17205.3 6741.37 17436.1 6741.37Z" fill="#FD6E5E"/>
<path d="M20328.6 7059.45C20185.1 7059.45 20113.4 7006.44 20113.4 6900.41V6862.99C20113.4 6800.62 20172.6 6703.95 20291.2 6572.98C20415.9 6442.01 20478.3 6304.8 20478.3 6161.35V1558.61C20478.3 1396.45 20415.9 1249.89 20291.2 1118.92C20172.6 987.943 20113.4 897.51 20113.4 847.616V810.195C20113.4 735.354 20175.8 672.986 20300.5 623.092L21479.4 43.0709C21604.2 -6.82307 21697.8 -13.0598 21760.1 24.3608C21828.8 61.7814 21863.1 124.149 21863.1 211.464V6161.35C21863.1 6304.8 21928.6 6442.01 22059.6 6572.98C22196.8 6703.95 22265.4 6800.62 22265.4 6862.99V6900.41C22265.4 7006.44 22193.7 7059.45 22050.2 7059.45H20328.6Z" fill="#FD6E5E"/>
</svg>
